<svg width="16" height="20" viewBox="0 0 16 20" fill="none" xmlns="http://www.w3.org/2000/svg">
<path d="M13.3629 10.4936C13.3905 13.4828 15.9717 14.4775 16.0002 14.4902C15.9784 14.5603 15.5878 15.9077 14.6404 17.2994C13.8214 18.5027 12.9713 19.7015 11.6322 19.7264C10.3166 19.7507 9.89347 18.9421 8.3892 18.9421C6.88536 18.9421 6.41529 19.7015 5.16978 19.7507C3.87726 19.7999 2.893 18.4496 2.06723 17.2508C0.379709 14.7985 -0.909872 10.3212 0.821716 7.29896C1.68192 5.79808 3.21925 4.84774 4.88777 4.82336C6.15698 4.79905 7.355 5.68167 8.13088 5.68167C8.90627 5.68167 10.3621 4.62025 11.8926 4.77612C12.5332 4.80294 14.3317 5.03621 15.4865 6.73536C15.3934 6.79335 13.3406 7.99462 13.3629 10.4937M10.8902 3.15373C11.5764 2.31879 12.0382 1.15654 11.9122 0C10.9231 0.0399565 9.72709 0.662548 9.01758 1.49698C8.38176 2.23599 7.82494 3.41873 7.97519 4.55233C9.07771 4.63809 10.2039 3.98917 10.8902 3.15373Z" fill="white"/>
</svg>
