<svg width="11" height="18" viewBox="0 0 11 18" fill="none" xmlns="http://www.w3.org/2000/svg">
<path d="M10.5417 0.484833C10.5417 0.35775 10.4912 0.235872 10.4013 0.146011C10.3115 0.05615 10.1896 0.00566645 10.0625 0.00566645H7.66667C6.46024 -0.0544298 5.27907 0.365417 4.38123 1.17347C3.48339 1.98153 2.94188 3.1121 2.875 4.31817V6.90567H0.479167C0.352084 6.90567 0.230206 6.95615 0.140345 7.04601C0.0504836 7.13587 0 7.25775 0 7.38483V9.8765C0 10.0036 0.0504836 10.1255 0.140345 10.2153C0.230206 10.3052 0.352084 10.3557 0.479167 10.3557H2.875V16.7765C2.875 16.9036 2.92548 17.0255 3.01534 17.1153C3.10521 17.2052 3.22708 17.2557 3.35417 17.2557H6.22917C6.35625 17.2557 6.47813 17.2052 6.56799 17.1153C6.65785 17.0255 6.70833 16.9036 6.70833 16.7765V10.3557H9.21917C9.32572 10.3572 9.42975 10.3232 9.5148 10.2589C9.59984 10.1947 9.66105 10.104 9.68875 10.0011L10.3788 7.50942C10.3978 7.43862 10.4004 7.36439 10.3862 7.29244C10.3721 7.22049 10.3416 7.15275 10.2972 7.09443C10.2528 7.03611 10.1955 6.98876 10.1299 6.95604C10.0643 6.92331 9.99207 6.90608 9.91875 6.90567H6.70833V4.31817C6.73217 4.08096 6.84357 3.86115 7.02077 3.70166C7.19798 3.54218 7.42827 3.45447 7.66667 3.45567H10.0625C10.1896 3.45567 10.3115 3.40518 10.4013 3.31532C10.4912 3.22546 10.5417 3.10358 10.5417 2.9765V0.484833Z" fill="white"/>
</svg>
